<?xml version="1.0" encoding="utf-8"?>
<svg xmlns="http://www.w3.org/2000/svg" x="0px" y="0px" width="250px" height="84.8px">
<path fill="#3A2D7D" d="M135.5,50.3l-22.6-36h-10.6v56.2h11.9l-0.6-35.8l22.4,35.8h10.3V14.3h-11.9L135.5,50.3z M182.7,36.5
	l-5.7-1.2c-5-1-7.6-1.8-8.8-3.6c-0.4-0.6-0.6-1.3-0.5-2c0-0.7,0.1-1.4,0.5-2.1c1.9-3.5,7.6-3.7,8.8-3.7c5.5-0.1,10.6,2.8,13.3,7.6
	l0.5,0.8l9.9-7.3l-0.5-0.7c-5.2-7.4-13.7-11.7-22.7-11.4c-13.2,0-18.6,6.6-20.2,9.4c-1.4,2.6-2.2,5.5-2.2,8.5
	c-0.1,5.7,3.1,10.9,8.2,13.4c2.5,1.2,5.2,2.1,7.9,2.5l7,1.5l1.2,0.3c2.5,0.5,6.3,1.3,7.7,3.2c0.5,0.8,0.8,1.7,0.8,2.7
	c0,4.6-5.2,5.8-5.8,5.9c-1.3,0.3-2.5,0.4-3.8,0.3c-9.8,0-13.9-4.4-16.1-7.7l-0.5-0.7l-10,6.9l0.4,0.7c0.8,1.3,1.7,2.6,2.8,3.7
	c3.6,3.8,10.4,8.4,21.9,8.4c9.5,0,15.3-3.2,18.4-5.9c3.8-3.1,5.9-7.8,5.7-12.7c0.2-3.6-1-7.1-3.4-9.8
	C193.8,39.3,188,37.6,182.7,36.5z M219.7,59.6V46.8h25V36.2h-25V25.2H247V14.3H208v56.2h41V59.6H219.7z"/>
<polygon fill="#E22028" points="73,72.1 13.4,12.7 1,42.4 13.2,72 43.3,84.5 "/>
<polygon fill="#E66F25" points="73,12.7 43.3,0.3 13.4,12.7 73,72.1 85.3,42.5 "/>
<polygon fill="#EFB41D" points="61.6,42.5 43.3,24 13.4,12.7 24.7,42.5 13.4,72.1 43.2,60.9 73,72.1 "/>
<path fill="#3A2E7D" d="M61.7,42.6L73,12.7L43.1,24L61.7,42.6z"/>
<polygon fill="#FFFFFF" points="43.2,24 24.9,42.5 43.2,60.8 61.5,42.5 "/>
</svg>
